<svg width="639" height="639" viewBox="0 0 639 639" fill="none" xmlns="http://www.w3.org/2000/svg">
<g clip-path="url(#clip0)">
<path d="M39.9375 449.297H59.9062C59.9062 438.284 68.8622 429.328 79.875 429.328V409.359C57.8495 409.359 39.9375 427.271 39.9375 449.297Z" fill="#71C9CE"/>
<path d="M59.9062 509.203H39.9375C39.9375 531.229 57.8495 549.141 79.875 549.141V529.172C68.8622 529.172 59.9062 520.216 59.9062 509.203Z" fill="#71C9CE"/>
<path d="M219.656 527.724V549.141H239.625V527.724C251.157 524.07 259.594 513.397 259.594 500.676C259.594 489.823 253.563 480.059 243.838 475.186L224.369 465.452C221.463 464.004 219.656 461.078 219.656 457.824C219.656 453.131 223.48 449.297 228.183 449.297H231.098C235.801 449.297 239.625 453.131 239.625 457.824V459.281H259.594V457.824C259.594 445.093 251.157 434.42 239.625 430.776V409.359H219.656V430.776C208.124 434.43 199.688 445.103 199.688 457.824C199.688 468.677 205.718 478.441 215.443 483.314L234.912 493.048C237.818 494.496 239.625 497.422 239.625 500.676C239.625 505.369 235.801 509.203 231.098 509.203H228.183C223.48 509.203 219.656 505.369 219.656 500.676V499.219H199.688V500.676C199.688 513.397 208.124 524.07 219.656 527.724Z" fill="#71C9CE"/>
<path d="M596.866 490.393C598.254 486.938 599.062 483.194 599.062 479.25V459.281C599.062 442.767 585.624 429.328 569.109 429.328H539.156V133.93L554.133 118.954L595.738 160.559L621.188 7.81776L468.457 33.2779L510.062 74.8828L409.359 175.585L349.453 115.679L95.7102 369.422H29.9531C13.439 369.422 0 382.861 0 399.375V559.125C0 575.639 13.439 589.078 29.9531 589.078H379.406V599.063C379.406 615.577 392.845 629.016 409.359 629.016H569.109C585.624 629.016 599.062 615.577 599.062 599.063V579.094C599.062 575.15 598.254 571.406 596.866 567.951C609.596 564.497 619.031 552.965 619.031 539.156V519.187C619.031 505.379 609.596 493.837 596.866 490.393ZM579.094 459.281V479.25C579.094 484.761 574.611 489.234 569.109 489.234H429.328H409.359C403.858 489.234 399.375 484.761 399.375 479.25V459.281C399.375 453.77 403.858 449.297 409.359 449.297H419.344V469.266H439.312V449.297H459.281V469.266H479.25V449.297H499.219V469.266H519.188V449.297H539.156V469.266H559.125V449.297H569.109C574.611 449.297 579.094 453.77 579.094 459.281ZM183.852 369.422L239.625 313.649V369.422H183.852ZM279.562 273.712V369.422H259.594V293.68L279.562 273.712ZM299.531 253.743L319.5 233.774V369.422H299.531V253.743ZM339.469 213.805L349.453 203.821L359.438 213.805V369.422H339.469V213.805ZM379.406 233.774L399.375 253.743V369.422H379.406V233.774ZM419.344 253.743L439.312 233.774V371.259C436.177 370.141 432.843 369.422 429.328 369.422H419.344V253.743ZM459.281 399.375V213.805L479.25 193.837V429.328H459.281V409.359V399.375ZM519.188 429.328H499.219V173.868L519.188 153.899V429.328ZM349.453 143.915L409.359 203.821L538.298 74.8828L510.012 46.5971L596.906 32.1197L582.419 119.004L554.133 90.718L409.359 235.491L349.453 175.585L155.616 369.422H123.946L349.453 143.915ZM29.9531 569.109C24.4517 569.109 19.9688 564.636 19.9688 559.125V399.375C19.9688 393.864 24.4517 389.391 29.9531 389.391H166.689C138.393 409.279 119.812 442.108 119.812 479.25C119.812 516.392 138.393 549.22 166.689 569.109H29.9531ZM229.641 389.391C279.183 389.391 319.5 429.698 319.5 479.25C319.5 528.802 279.183 569.109 229.641 569.109C180.098 569.109 139.781 528.802 139.781 479.25C139.781 429.698 180.098 389.391 229.641 389.391ZM339.469 479.25C339.469 442.108 320.888 409.279 292.592 389.391H429.328C434.83 389.391 439.312 393.864 439.312 399.375V409.359V429.328H409.359C392.845 429.328 379.406 442.767 379.406 459.281V479.25C379.406 493.058 388.841 504.6 401.572 508.045C400.184 511.499 399.375 515.244 399.375 519.187V539.156C399.375 543.1 400.184 546.844 401.572 550.299C392.086 552.875 384.518 559.934 381.243 569.109H292.582C320.888 549.22 339.469 516.392 339.469 479.25ZM579.094 599.063C579.094 604.574 574.611 609.047 569.109 609.047H409.359C403.858 609.047 399.375 604.574 399.375 599.063V579.094C399.375 573.582 403.858 569.109 409.359 569.109H419.344V589.078H439.312V569.109H459.281V589.078H479.25V569.109H499.219V589.078H519.188V569.109H539.156V589.078H559.125V569.109H569.109C574.611 569.109 579.094 573.582 579.094 579.094V599.063ZM599.062 539.156C599.062 544.668 594.58 549.141 589.078 549.141H569.109H429.328C423.827 549.141 419.344 544.668 419.344 539.156V519.187C419.344 513.676 423.827 509.203 429.328 509.203H439.312V529.172H459.281V509.203H479.25V529.172H499.219V509.203H519.188V529.172H539.156V509.203H559.125V529.172H579.094V509.203H589.078C594.58 509.203 599.062 513.676 599.062 519.187V539.156Z" fill="#71C9CE"/>
<path d="M219.656 9.98438H39.9375V69.8906H219.656V9.98438ZM199.688 49.9219H59.9062V29.9531H199.688V49.9219Z" fill="#71C9CE"/>
<path d="M39.9375 89.8594H219.656V109.828H39.9375V89.8594Z" fill="#71C9CE"/>
<path d="M39.9375 129.797H219.656V149.766H39.9375V129.797Z" fill="#71C9CE"/>
<path d="M39.9375 209.672H219.656V229.641H39.9375V209.672Z" fill="#71C9CE"/>
<path d="M39.9375 169.734H59.9062V189.703H39.9375V169.734Z" fill="#71C9CE"/>
<path d="M79.875 169.734H99.8438V189.703H79.875V169.734Z" fill="#71C9CE"/>
<path d="M119.812 169.734H219.656V189.703H119.812V169.734Z" fill="#71C9CE"/>
</g>
<defs>
<clipPath id="clip0">
<rect width="639" height="639" fill="white"/>
</clipPath>
</defs>
</svg>
